<?xml version="1.0" standalone="no" ?>
<!DOCTYPE svg PUBLIC "-//W3C//DTD SVG 1.0//EN" "http://www.w3.org/TR/2001/REC-SVG-20010904/DTD/svg10.dtd">
<svg style="vertical-align: -0.052ex" xmlns="http://www.w3.org/2000/svg" width="1.446ex" height="1.647ex" role="img" focusable="false" viewBox="0 -705 639 728">
<style>
  * {
    fill: black;
    background-color: transparent;
  }
</style><g stroke="currentColor" fill="currentColor" stroke-width="0" transform="scale(1,-1)"><g data-mml-node="math"><g data-mml-node="mi"><path data-c="2141" d="M239 665Q194 665 154 653T90 629T66 617Q59 617 53 623T46 637Q46 652 66 659Q129 695 197 701Q218 705 248 705Q293 705 335 693Q371 684 435 644Q543 562 573 417Q577 393 577 341Q577 290 573 266Q531 83 384 10Q346 -9 315 -16T234 -23H206Q202 -23 183 -23T152 -21T120 -18T88 -10T63 3T44 24L37 35V297L50 310H235Q248 297 248 290Q248 285 235 270H77V103Q77 88 77 80T77 63T78 50T80 43T82 38T85 35T89 32T95 30Q126 20 206 17Q289 17 330 30Q407 55 460 120T533 275Q538 305 538 342Q538 486 452 575T239 665Z"></path></g></g></g></svg>