<?xml version="1.0" standalone="no" ?>
<!DOCTYPE svg PUBLIC "-//W3C//DTD SVG 1.0//EN" "http://www.w3.org/TR/2001/REC-SVG-20010904/DTD/svg10.dtd">
<svg style="vertical-align: -0.05ex" xmlns="http://www.w3.org/2000/svg" width="0.88ex" height="1.747ex" role="img" focusable="false" viewBox="0 -750 389 772">
<style>
  * {
    fill: black;
    background-color: transparent;
  }
</style><g stroke="currentColor" fill="currentColor" stroke-width="0" transform="scale(1,-1)"><g data-mml-node="math"><g data-mml-node="mi"><path data-c="266D" d="M200 467Q254 467 293 428T332 321Q332 147 104 -11L88 -22H75Q62 -22 56 -16L55 362V647Q55 743 60 748Q63 750 76 750H83Q87 750 95 744V434L104 440Q144 467 200 467ZM237 322Q237 360 225 388T183 417Q158 417 134 407T101 378Q96 370 96 349T95 197V34Q152 91 194 167T237 322Z"></path></g></g></g></svg>