<?xml version="1.0" standalone="no" ?>
<!DOCTYPE svg PUBLIC "-//W3C//DTD SVG 1.0//EN" "http://www.w3.org/TR/2001/REC-SVG-20010904/DTD/svg10.dtd">
<svg style="vertical-align: -0.563ex" xmlns="http://www.w3.org/2000/svg" width="1.962ex" height="2.26ex" role="img" focusable="false" viewBox="0 -750 867 999">
<style>
  * {
    fill: black;
    background-color: transparent;
  }
</style><g stroke="currentColor" fill="currentColor" stroke-width="0" transform="scale(1,-1)"><g data-mml-node="math"><g data-mml-node="mo"><path data-c="22A8" d="M139 -249H137Q125 -249 119 -235V251L120 737Q130 750 139 750Q152 750 159 735V367H796Q811 359 811 347Q811 336 797 328L479 327H161L159 328V172L161 173H797Q798 172 800 171T803 169T805 167T808 164T809 162T810 158T811 153Q811 140 796 133H159V-235Q151 -249 141 -249H139Z"></path></g></g></g></svg>