<?xml version="1.0" standalone="no" ?>
<!DOCTYPE svg PUBLIC "-//W3C//DTD SVG 1.0//EN" "http://www.w3.org/TR/2001/REC-SVG-20010904/DTD/svg10.dtd">
<svg style="vertical-align: -0.05ex" xmlns="http://www.w3.org/2000/svg" width="1.633ex" height="1.597ex" role="img" focusable="false" viewBox="0 -684 722 706">
<style>
  * {
    fill: black;
    background-color: transparent;
  }
</style><g stroke="currentColor" fill="currentColor" stroke-width="0" transform="scale(1,-1)"><g data-mml-node="math"><g data-mml-node="mi"><path data-c="2127" d="M126 584Q119 584 110 539T97 493Q95 490 73 490Q44 490 44 501Q44 515 62 590Q75 672 82 679Q84 684 177 684Q193 684 214 684T241 685Q265 685 271 682T277 664V648Q271 572 229 434T186 231Q186 173 203 132T247 70T302 42T360 33Q391 33 419 42T474 72T517 133T533 231Q533 297 491 437T442 648Q442 675 446 679Q448 684 542 684Q635 684 637 681Q640 678 657 594T675 501Q675 490 646 490Q624 490 622 493Q620 493 609 538T593 584Q591 585 585 585T569 586T551 588H513Q514 586 518 573T538 531T582 453Q647 340 660 277Q663 259 663 232Q663 194 657 177Q652 151 629 112T560 39Q495 -5 424 -19Q403 -22 360 -22Q318 -22 297 -19Q239 -8 193 18T120 74T80 131T62 177Q56 194 56 229Q56 281 74 328T137 453Q160 491 174 518T193 555T201 575T206 588H168Q160 587 150 587T134 586T126 584Z"></path></g></g></g></svg>