<?xml version="1.0" standalone="no" ?>
<!DOCTYPE svg PUBLIC "-//W3C//DTD SVG 1.0//EN" "http://www.w3.org/TR/2001/REC-SVG-20010904/DTD/svg10.dtd">
<svg style="vertical-align: -0.367ex" xmlns="http://www.w3.org/2000/svg" width="1.76ex" height="2.011ex" role="img" focusable="false" viewBox="0 -727 778 889">
<style>
  * {
    fill: black;
    background-color: transparent;
  }
</style><g stroke="currentColor" fill="currentColor" stroke-width="0" transform="scale(1,-1)"><g data-mml-node="math"><g data-mml-node="mi"><path data-c="2662" d="M370 714Q370 717 375 722T388 727Q398 727 403 721T417 697Q420 692 421 689Q536 465 709 304Q723 291 723 282T709 260Q529 93 406 -153Q402 -162 390 -162H389Q379 -162 376 -158T357 -125Q247 89 89 241L64 265Q55 272 55 282Q55 287 57 290T64 300T77 312T98 331T127 361Q197 435 258 523T344 663L370 714ZM655 299Q568 384 508 470T389 662L376 638Q362 613 341 577T289 497T215 399T123 299L105 282L123 265Q210 180 270 94T389 -98L402 -74Q416 -49 437 -13T489 67T563 165T655 265L673 282L655 299Z"></path></g></g></g></svg>