<?xml version="1.0" standalone="no" ?>
<!DOCTYPE svg PUBLIC "-//W3C//DTD SVG 1.0//EN" "http://www.w3.org/TR/2001/REC-SVG-20010904/DTD/svg10.dtd">
<svg style="vertical-align: 0" xmlns="http://www.w3.org/2000/svg" width="1.382ex" height="1.57ex" role="img" focusable="false" viewBox="0 -694 611 694">
<style>
  * {
    fill: black;
    background-color: transparent;
  }
</style><g stroke="currentColor" fill="currentColor" stroke-width="0" transform="scale(1,-1)"><g data-mml-node="math"><g data-mml-node="mo"><path data-c="22A8" d="M55 678Q55 679 56 681T58 684T61 688T65 691T70 693T77 694Q88 692 95 679V464H540Q554 456 555 446Q555 442 554 439T552 434T549 430T546 428T542 426T539 424H95V270H539Q540 270 542 269T545 267T549 264T552 260T554 255T555 248Q554 238 540 230H95V15Q88 2 77 0Q73 0 70 1T65 3T61 6T59 9T57 13T55 16V678Z"></path></g></g></g></svg>