<?xml version="1.0" standalone="no" ?>
<!DOCTYPE svg PUBLIC "-//W3C//DTD SVG 1.0//EN" "http://www.w3.org/TR/2001/REC-SVG-20010904/DTD/svg10.dtd">
<svg style="vertical-align: -0.011ex" xmlns="http://www.w3.org/2000/svg" width="1.131ex" height="1.154ex" role="img" focusable="false" viewBox="0 -505 500 510">
<style>
  * {
    fill: black;
    background-color: transparent;
  }
</style><g stroke="currentColor" fill="currentColor" stroke-width="0" transform="scale(1,-1)"><g data-mml-node="math"><g data-mml-node="mo"><path data-c="25C3" d="M473 10Q466 -5 454 -5Q451 -5 445 -3Q444 -3 343 56T140 173T35 234Q26 239 26 250T35 266Q40 269 240 384T445 503Q451 505 453 505Q466 505 473 490V10ZM433 50T433 250T432 450T259 351T87 250T258 150T432 50Q433 50 433 250Z"></path></g></g></g></svg>