<?xml version="1.0" standalone="no" ?>
<!DOCTYPE svg PUBLIC "-//W3C//DTD SVG 1.0//EN" "http://www.w3.org/TR/2001/REC-SVG-20010904/DTD/svg10.dtd">
<svg style="vertical-align: -0.294ex" xmlns="http://www.w3.org/2000/svg" width="1.76ex" height="1.939ex" role="img" focusable="false" viewBox="0 -727 778 857">
<style>
  * {
    fill: black;
    background-color: transparent;
  }
</style><g stroke="currentColor" fill="currentColor" stroke-width="0" transform="scale(1,-1)"><g data-mml-node="math"><g data-mml-node="mi"><path data-c="2660" d="M181 -21Q134 -21 96 27T55 193Q55 224 58 247T82 317T143 410Q172 443 234 498Q282 543 314 598T360 687T380 725Q386 727 389 727Q395 727 398 725T406 716T413 702T423 677T439 641Q481 556 544 498Q633 420 678 353T723 204Q723 142 711 94T669 12T590 -21Q520 -21 490 8T459 66V70H409V62Q409 22 416 -17T430 -82T437 -112Q437 -131 407 -131Q403 -131 397 -131T389 -130T382 -130T372 -131Q341 -131 341 -111Q341 -107 348 -82T362 -18T369 62V70H319V66Q319 57 314 44T297 16T257 -10T191 -21H181Z"></path></g></g></g></svg>