<?xml version="1.0" standalone="no" ?>
<!DOCTYPE svg PUBLIC "-//W3C//DTD SVG 1.0//EN" "http://www.w3.org/TR/2001/REC-SVG-20010904/DTD/svg10.dtd">
<svg style="vertical-align: 0" xmlns="http://www.w3.org/2000/svg" width="1.76ex" height="1.328ex" role="img" focusable="false" viewBox="0 -587 778 587">
<style>
  * {
    fill: black;
    background-color: transparent;
  }
</style><g stroke="currentColor" fill="currentColor" stroke-width="0" transform="scale(1,-1)"><g data-mml-node="math"><g data-mml-node="mi"><path data-c="2205" d="M624 470Q624 468 639 446T668 382T683 291Q683 181 612 99T437 -1Q425 -2 387 -2T337 -1Q245 18 193 70L179 81L131 39Q96 8 89 3T75 -3Q55 -3 55 17Q55 24 61 30T111 73Q154 113 151 113Q151 114 140 130T115 177T95 241Q94 253 94 291T95 341Q112 431 173 495Q265 587 385 587Q410 587 437 581Q522 571 582 513L595 501L642 541Q689 586 695 586Q696 586 697 586T699 587Q706 587 713 583T720 568Q720 560 711 551T664 510Q651 499 642 490T628 475T624 470ZM564 477Q517 522 448 539Q428 546 375 546Q290 546 229 492T144 370Q133 332 133 279Q136 228 151 195Q157 179 168 160T184 141Q186 141 375 307T564 477ZM642 290Q642 318 637 343T625 386T611 416T598 436T593 444Q590 444 402 277T213 108Q213 104 231 89T293 55T392 37Q495 37 568 111T642 290Z"></path></g></g></g></svg>