<?xml version="1.0" standalone="no" ?>
<!DOCTYPE svg PUBLIC "-//W3C//DTD SVG 1.0//EN" "http://www.w3.org/TR/2001/REC-SVG-20010904/DTD/svg10.dtd">
<svg style="vertical-align: -0.486ex" xmlns="http://www.w3.org/2000/svg" width="1.509ex" height="2.106ex" role="img" focusable="false" viewBox="0 -716 667 931">
<style>
  * {
    fill: black;
    background-color: transparent;
  }
</style><g stroke="currentColor" fill="currentColor" stroke-width="0" transform="scale(1,-1)"><g data-mml-node="math"><g data-mml-node="mo"><path data-c="2209" d="M196 25Q84 109 84 250Q84 372 166 450T360 539Q361 539 375 539T413 540T460 540L547 707Q550 716 563 716Q570 716 575 712T581 703T583 696T505 540H568Q583 532 583 520Q583 511 570 501L484 500L366 270H568Q583 262 583 250T568 230H346L247 38Q284 16 328 7Q355 1 466 0H570Q583 -10 583 -20Q583 -32 568 -40H471Q464 -40 447 -40T419 -41Q304 -41 228 3Q117 -211 115 -212Q111 -215 104 -215T92 -212T86 -204T84 -197Q84 -190 89 -183L196 25ZM214 61L301 230H124V228Q124 196 147 147T214 61ZM321 270L440 500Q353 499 329 494Q280 482 242 458T183 409T147 354T129 306T124 272V270H321Z"></path></g></g></g></svg>