<?xml version="1.0" standalone="no" ?>
<!DOCTYPE svg PUBLIC "-//W3C//DTD SVG 1.0//EN" "http://www.w3.org/TR/2001/REC-SVG-20010904/DTD/svg10.dtd">
<svg style="vertical-align: -0.09ex" xmlns="http://www.w3.org/2000/svg" width="1.509ex" height="1.312ex" role="img" focusable="false" viewBox="0 -540 667 580">
<style>
  * {
    fill: black;
    background-color: transparent;
  }
</style><g stroke="currentColor" fill="currentColor" stroke-width="0" transform="scale(1,-1)"><g data-mml-node="math"><g data-mml-node="mo"><path data-c="220B" d="M83 520Q83 532 98 540H195Q202 540 220 540T249 541Q404 541 494 455Q582 374 582 250Q582 165 539 99T434 0T304 -39Q297 -40 195 -40H98Q83 -32 83 -20Q83 -10 96 0H200Q311 1 337 6Q369 14 401 28Q422 39 445 55Q484 85 508 127T537 191T542 228V230H98Q84 237 84 250T98 270H542V272Q542 280 539 295T527 336T497 391T445 445Q422 461 401 472Q386 479 374 483T347 491T325 495T298 498T273 499T239 500T200 500L96 501Q83 511 83 520Z"></path></g></g></g></svg>