<?xml version="1.0" standalone="no" ?>
<!DOCTYPE svg PUBLIC "-//W3C//DTD SVG 1.0//EN" "http://www.w3.org/TR/2001/REC-SVG-20010904/DTD/svg10.dtd">
<svg style="vertical-align: -1.017ex" xmlns="http://www.w3.org/2000/svg" width="2.514ex" height="3.165ex" role="img" focusable="false" viewBox="0 -949.5 1111 1399">
<style>
  * {
    fill: black;
    background-color: transparent;
  }
</style><g stroke="currentColor" fill="currentColor" stroke-width="0" transform="scale(1,-1)"><g data-mml-node="math"><g data-mml-node="mo" transform="translate(0 0.5)"><path data-c="22C2" d="M57 516Q68 602 104 675T190 797T301 882T423 933T542 949Q594 949 606 948Q780 928 901 815T1048 545Q1053 516 1053 475T1055 49Q1055 -406 1054 -410Q1051 -427 1037 -438T1006 -450T976 -439T958 -411Q957 -407 957 37Q957 484 956 494Q945 643 831 747T554 852Q481 852 411 826Q301 786 232 696T154 494Q153 484 153 37Q153 -407 152 -411Q148 -428 135 -439T104 -450T73 -439T56 -410Q55 -406 55 49Q56 505 57 516Z"></path></g></g></g></svg>