<?xml version="1.0" standalone="no" ?>
<!DOCTYPE svg PUBLIC "-//W3C//DTD SVG 1.0//EN" "http://www.w3.org/TR/2001/REC-SVG-20010904/DTD/svg10.dtd">
<svg style="vertical-align: -1.018ex" xmlns="http://www.w3.org/2000/svg" width="2.514ex" height="3.167ex" role="img" focusable="false" viewBox="0 -950 1111 1400">
<style>
  * {
    fill: black;
    background-color: transparent;
  }
</style><g stroke="currentColor" fill="currentColor" stroke-width="0" transform="scale(1,-1)"><g data-mml-node="math"><g data-mml-node="mo"><path data-c="2A06" d="M56 911Q60 927 72 938T103 950Q120 950 134 939T152 911Q153 907 153 277V-352H957V277Q957 907 958 911Q962 928 975 939T1006 950T1036 939T1054 911V891Q1054 871 1054 836T1054 754T1054 647T1055 525T1055 390T1055 250T1055 111T1055 -24T1055 -147T1054 -253T1054 -335T1054 -391V-411Q1047 -442 1016 -449Q1011 -450 552 -450L94 -449Q63 -439 56 -411V-391Q56 -371 56 -336T56 -254T56 -147T55 -25T55 110T55 250T55 389T55 524T55 647T56 753T56 835T56 891V911Z"></path></g></g></g></svg>