<?xml version="1.0" standalone="no" ?>
<!DOCTYPE svg PUBLIC "-//W3C//DTD SVG 1.0//EN" "http://www.w3.org/TR/2001/REC-SVG-20010904/DTD/svg10.dtd">
<svg style="vertical-align: -1.017ex" xmlns="http://www.w3.org/2000/svg" width="2.514ex" height="3.165ex" role="img" focusable="false" viewBox="0 -949.5 1111 1399">
<style>
  * {
    fill: black;
    background-color: transparent;
  }
</style><g stroke="currentColor" fill="currentColor" stroke-width="0" transform="scale(1,-1)"><g data-mml-node="math"><g data-mml-node="mo" transform="translate(0 -0.5)"><path data-c="22C3" d="M56 911Q58 926 71 938T103 950Q120 950 134 939T152 911Q153 907 153 463Q153 16 154 6Q165 -143 279 -247T556 -352Q716 -352 830 -248T956 6Q957 16 957 463Q957 907 958 911Q962 928 975 939T1006 950T1037 939T1054 911Q1055 906 1055 451Q1054 -5 1053 -16Q1029 -207 889 -328T555 -449Q363 -449 226 -331T62 -45Q57 -16 57 25T55 451Q55 906 56 911Z"></path></g></g></g></svg>