<?xml version="1.0" standalone="no" ?>
<!DOCTYPE svg PUBLIC "-//W3C//DTD SVG 1.0//EN" "http://www.w3.org/TR/2001/REC-SVG-20010904/DTD/svg10.dtd">
<svg style="vertical-align: -0.014ex" xmlns="http://www.w3.org/2000/svg" width="1.661ex" height="0.995ex" role="img" focusable="false" viewBox="0 -434 734 440">
<style>
  * {
    fill: black;
    background-color: transparent;
  }
</style><g stroke="currentColor" fill="currentColor" stroke-width="0" transform="scale(1,-1)"><g data-mml-node="math"><g data-mml-node="mi"><path data-c="1D718" d="M228 325Q170 322 156 316T127 309Q108 309 104 314Q99 319 99 322T108 341Q125 376 171 400T268 425H271Q302 425 319 396Q328 377 328 358Q328 332 324 314Q311 270 286 221Q274 194 274 192H275Q339 234 484 325T639 421Q669 434 691 434T723 425T734 406Q734 394 719 381Q715 376 644 330L575 287L566 267Q543 233 526 176Q520 160 515 143T508 115T506 105Q506 103 533 103Q585 103 607 110T641 118Q670 118 670 107Q670 100 661 85Q643 50 598 27T504 3Q465 3 450 36Q441 51 441 73Q441 84 444 96Q452 146 484 205L497 236L324 125Q143 12 135 10Q103 -6 77 -6Q61 -6 49 2T37 21Q37 36 49 46T124 96L195 141L204 156Q219 179 243 248T264 323Q264 325 228 325Z"></path></g></g></g></svg>