<?xml version="1.0" standalone="no" ?>
<!DOCTYPE svg PUBLIC "-//W3C//DTD SVG 1.0//EN" "http://www.w3.org/TR/2001/REC-SVG-20010904/DTD/svg10.dtd">
<svg style="vertical-align: -0.192ex" xmlns="http://www.w3.org/2000/svg" width="1.76ex" height="1.561ex" role="img" focusable="false" viewBox="0 -605 778 690">
<style>
  * {
    fill: black;
    background-color: transparent;
  }
</style><g stroke="currentColor" fill="currentColor" stroke-width="0" transform="scale(1,-1)"><g data-mml-node="math"><g data-mml-node="mi"><path data-c="3DD" d="M477 261Q477 257 473 256T455 253T417 251T348 250H235L155 -77L146 -82Q137 -85 109 -85Q55 -85 55 -77L139 261Q224 596 226 598Q229 603 239 603Q240 603 254 603T290 603T341 604T405 605T477 605Q656 603 687 602T719 596Q719 589 692 588T513 585H319L282 427L242 272Q242 270 351 270Q388 270 410 270T444 269T460 267T469 265T477 261Z"></path></g></g></g></svg>