<?xml version="1.0" standalone="no" ?>
<!DOCTYPE svg PUBLIC "-//W3C//DTD SVG 1.0//EN" "http://www.w3.org/TR/2001/REC-SVG-20010904/DTD/svg10.dtd">
<svg style="vertical-align: -0.242ex" xmlns="http://www.w3.org/2000/svg" width="0.916ex" height="1.242ex" role="img" focusable="false" viewBox="0 -442 405 549">
<style>
  * {
    fill: black;
    background-color: transparent;
  }
</style><g stroke="currentColor" fill="currentColor" stroke-width="0" transform="scale(1,-1)"><g data-mml-node="math"><g data-mml-node="mi"><path data-c="1D70D" d="M31 207Q31 306 115 374T302 442Q341 442 373 430T405 400Q405 392 399 383T379 374Q373 375 348 390T296 405Q222 405 160 357T98 249Q98 232 103 218T112 195T132 175T154 159T186 141T219 122Q234 114 255 102T286 85T299 78L302 74Q306 71 308 69T315 61T322 51T328 40T332 25T334 8Q334 -31 305 -69T224 -107Q194 -107 163 -92Q156 -88 156 -80Q156 -73 162 -67T178 -61Q186 -61 190 -63Q209 -71 224 -71Q244 -71 253 -59T263 -30Q263 -25 263 -21T260 -12T255 -4T248 3T239 9T227 17T213 25T195 34T174 46Q170 48 150 58T122 74T97 90T70 112T51 137T36 169T31 207Z"></path></g></g></g></svg>