<svg width="456" height="456" xmlns="http://www.w3.org/2000/svg" version="1.1">
 <defs>
  <clipPath id="Clip_1">
   <path d="m88.79633,259.65576l400.407,0l0,-417.184l-400.407,0l0,417.184z" id="svg_1"/>
  </clipPath>
 </defs>
 <g>
  <title>Layer 1</title>
  <g stroke="null" id="Layer_1">
   <g stroke="null" clip-path="url(#Clip_1)" id="svg_2">
    <path stroke="null" d="m276.99461,65.6498c-1.42707,0.8771 -2.58682,0.51151 -3.8711,0.23184c-1.75913,-0.38263 -1.24609,-1.74934 -1.21703,-2.90856c0.0332,-1.33593 0.01162,-2.67347 0.01493,-4.0094c0.0083,-3.69974 1.70767,-5.40451 5.38783,-5.74336c1.51341,-0.13861 1.56239,0.6485 1.57982,1.62938c0.02573,1.46969 0.00663,2.94018 0.00663,5.00892c0.17683,1.75016 0.83681,4.1083 -1.90109,5.79118l0,-0.00002zm114.65852,143.83668c-5.02753,-20.09565 -15.44537,-37.71318 -30.36109,-52.10358c-7.8169,-7.54135 -12.36792,-15.61445 -14.00253,-25.78631c-0.04233,-0.26427 -0.10958,-0.53907 -0.23576,-0.77334c-0.72225,-1.33998 -0.52716,-2.2098 0.65003,-3.47763c2.26139,-2.43352 1.24527,-4.77626 -2.21076,-5.3818c-1.21621,-0.21319 -1.91355,-0.36316 -2.44735,-1.57507c-5.91831,-13.43952 -14.62766,-24.89704 -26.20607,-34.38634c1.02028,-0.90062 1.84963,-1.60668 2.64991,-2.34274c11.01224,-10.12403 11.9105,-27.66698 1.97083,-38.40223c-3.21027,-3.4679 -5.34134,-3.18013 -7.3296,1.02708c-4.8839,10.33965 -13.21968,17.74724 -21.93235,25.12483c-1.21454,-2.48945 -1.92434,-5.04135 -4.11185,-6.32053c-1.96917,-1.15272 -2.39006,-2.68482 -2.55528,-4.6344c-0.78866,-9.34014 -0.82021,-9.36689 8.47192,-12.80155c1.78652,-0.66067 3.44272,-1.36591 3.46182,-3.4752c0.01827,-2.09874 -1.55906,-2.93856 -3.38628,-3.53843c-5.22677,-1.71611 -10.43859,-3.4752 -15.64046,-5.26022c-14.11378,-4.84193 -28.21924,-9.70735 -42.32721,-14.56306c-0.27727,0 -0.55373,0 -0.83018,0c-0.14944,0.20509 -0.25653,0.53259 -0.4541,0.59825c-18.91135,6.31728 -37.83182,12.60863 -56.74316,18.92428c-1.94177,0.64932 -4.19486,1.15434 -4.19238,3.78485c0.00249,2.62321 2.19331,3.08609 4.18075,3.74757c6.1358,2.04036 12.26581,4.09938 18.37255,6.22405c1.08421,0.37695 2.81345,0.3502 2.89648,1.82555c0.18097,3.21823 0.49977,6.55967 -0.23494,9.62224c-0.23661,0.98573 -3.60378,1.23703 -5.52647,1.8604c-3.40039,1.10084 -6.82983,2.13197 -10.17129,3.38602c-1.76992,0.66473 -2.98862,0.46449 -4.44143,-0.79281c-8.21125,-7.10359 -16.0132,-14.48363 -20.60739,-24.5047c-1.46857,-3.20283 -3.49502,-3.45735 -6.10841,-0.99465c-3.25511,3.06744 -5.47665,6.82555 -6.55919,11.07085c-3.09987,12.1652 0.28475,22.36138 10.38878,30.43205c-11.33684,9.27124 -19.91752,20.3737 -25.7528,33.44924c-0.98458,2.20655 -1.6894,4.06047 -4.82579,2.60458c-1.48767,-0.68985 -3.00024,0.22536 -3.68431,1.79717c-0.60187,1.38376 -0.3686,3.24659 0.90905,3.59031c5.16368,1.39106 2.56856,4.58414 2.02396,7.2714c-0.4541,2.24383 -1.20292,4.43093 -1.64872,6.67558c-3.93419,19.82733 -4.71123,39.88568 -4.40656,60.00728c0.03736,2.4919 -0.37523,3.61301 -3.28002,3.54166c-4.13675,-0.10214 -8.30754,0.35748 -12.30233,1.46644c-8.57486,2.38164 -16.97953,5.06728 -26.08487,1.79799c-2.95541,-1.06111 -4.4107,1.10733 -3.84702,4.7714c3.67601,23.87158 7.40183,47.73507 11.0272,71.61313c0.40928,2.69536 1.68691,4.04588 4.41735,4.46498c6.68455,1.02626 13.33507,2.26816 20.0271,3.23606c1.9974,0.2894 3.06001,0.98005 3.95993,2.8437c8.76912,18.14282 21.38442,24.59306 41.52774,21.24351c1.73589,-0.28859 2.8724,-0.05675 4.04045,1.07734c4.62655,4.49336 9.72464,8.42899 15.37231,11.60667c2.27385,1.28 1.6811,2.10279 0.21169,3.45898c-3.15798,2.91586 -5.55053,6.41861 -6.91782,10.4272c-1.23779,3.63084 -0.97379,7.27383 1.91769,10.20752c2.72047,2.7594 6.0337,2.88343 9.59016,1.67801c0.98541,-0.33317 1.838,-1.15921 3.18869,0.2513c4.62074,4.82491 8.95424,5.0616 14.6127,1.44049c0.89078,-0.57069 1.37061,-1.71531 3.1148,-1.18352c8.46528,2.57783 14.74885,-0.65095 17.4519,-9.05967c0.73969,-2.30221 1.49348,-2.83398 3.93917,-2.58998c10.32985,1.03275 20.70119,1.01653 31.03518,0.04783c2.39754,-0.22454 3.36303,0.24887 4.02966,2.53405c1.40134,4.80301 4.51198,8.28064 9.46398,9.96757c3.21526,1.09516 6.31263,-1.08219 9.05719,-0.79847c2.89482,0.29832 5.34881,3.31144 8.96588,3.45735c4.02717,0.16374 5.87845,-3.06825 8.72428,-4.28421c2.5146,-1.07571 6.40728,1.97876 9.79105,0.0146c0.81939,-0.47504 1.6562,-1.04816 2.23898,-1.76719c2.77362,-3.4217 2.7487,-7.17575 1.16306,-11.06031c-1.75083,-4.28907 -4.76519,-7.73427 -8.1963,-11.17784c5.56548,-3.31631 10.65279,-6.78259 15.2976,-10.83414c12.50324,-10.90547 21.29062,-24.29961 27.68377,-39.30851c0.65916,-1.5467 0.90738,-3.19066 3.63366,-2.6143c16.45984,3.48411 29.29432,-2.59403 39.11028,-15.19536c12.53064,-16.08706 13.7045,-34.34904 8.99243,-53.18334" fill="#6E4100" id="svg_3"/>
   </g>
   <path stroke="null" d="m61.79633,80.79571c1.8272,-3.62029 5.6983,-3.39252 8.86126,-4.23233c2.85164,-0.75713 4.51946,-1.87987 4.87312,-4.94812c0.32044,-2.78697 1.30752,-5.49449 1.86955,-8.26281c0.39268,-1.93743 1.62299,-2.71969 3.46598,-2.79264c2.08373,-0.0835 3.39042,0.90142 3.84619,2.90856c0.65666,2.88991 1.51175,5.75471 1.90193,8.67866c0.34285,2.57376 1.60223,3.74837 4.13675,4.17071c2.0248,0.33723 3.97985,1.06599 5.9731,1.59776c1.91769,0.51069 3.26591,1.52157 3.16129,3.64137c-0.09049,1.84987 -1.14232,3.17525 -3.03511,3.26606c-8.68278,0.41748 -11.38251,5.79847 -11.87729,13.21822c-0.15607,2.33463 -1.14065,4.12451 -4.04212,4.15288c-3.03428,0.03 -3.48507,-2.08982 -3.97901,-4.23801c-0.1212,-0.52529 -0.24157,-1.06031 -0.26648,-1.59533c-0.31214,-6.78259 -3.54484,-10.92817 -10.81881,-11.3343c-2.3278,-0.12971 -3.28583,-1.63263 -4.07034,-3.42007c0,-0.27075 0,-0.54069 0,-0.81064" fill="#FFCF00" id="svg_4"/>
   <path stroke="null" d="m132.65326,132.19971c0.30882,0.05998 0.58527,0.06728 0.82188,0.16619c4.05788,1.69828 8.96172,2.54783 11.93208,5.3502c3.14636,2.96854 0.10046,7.83398 0.32625,11.87742c0.4458,7.96368 1.13235,15.83494 3.99728,23.42979c4.49041,11.9058 13.74269,18.1404 25.76192,21.23864c14.53964,3.74757 29.43711,4.50065 44.36113,4.99919c20.05034,0.6704 40.07494,0.38181 60.03397,-1.76881c9.21742,-0.99383 18.34019,-2.5154 26.82372,-6.41618c1.84797,-0.84954 2.48389,-0.66148 2.91889,1.35701c0.7621,3.5368 2.59097,6.5856 5.75892,8.58301c1.52752,0.96303 1.2187,2.2098 1.24443,3.51896c0.14859,7.77642 2.96372,13.99399 10.89768,16.91067c2.10282,0.77334 1.36315,1.84339 1.0319,3.12662c-2.2672,8.76053 -4.66309,17.49107 -4.48459,26.65855c0.16272,8.32522 2.59843,15.70768 9.19583,21.29295c1.73173,1.46644 1.69688,2.61754 0.90821,4.48443c-15.02779,35.60471 -41.67635,56.22808 -81.27062,60.03483c-23.13193,2.22438 -45.81642,0.82766 -67.30212,-8.95509c-7.31133,-3.32847 -13.91122,-7.70104 -20.04951,-12.79425c-1.7251,-1.43159 -1.95423,-2.18385 0.28475,-3.369c4.21978,-2.2333 7.63094,-5.43936 9.57024,-9.7795c0.97214,-2.17737 2.89896,-1.95606 4.48625,-2.23005c14.9564,-2.58511 29.93603,-5.03728 44.90988,-7.52027c6.66962,-1.10571 13.31847,-2.36381 20.02129,-3.22228c3.38379,-0.43369 4.70377,-2.07442 5.16533,-5.14753c2.22404,-14.8095 4.54354,-29.60601 6.84229,-44.40498c1.26352,-8.13148 2.49633,-16.26864 3.85034,-24.38634c1.1307,-6.77609 0.02657,-8.01556 -6.7078,-6.50859c-6.12834,1.37078 -11.79426,1.32458 -18.08035,-0.61608c-24.87116,-7.67834 -47.07662,-1.4713 -66.98003,14.09857c-1.7334,1.35619 -2.67565,2.09549 -4.6855,0.32912c-10.22441,-8.98832 -22.42629,-14.09695 -35.78377,-16.74529c-1.70269,-0.33803 -3.14967,-0.28777 -3.16463,-2.68726c-0.14279,-23.09744 0.30716,-46.13325 6.44629,-68.66405c0.21004,-0.77334 0.60935,-1.49805 0.91817,-2.2406" fill="#F2ECD9" id="svg_5"/>
   <path stroke="null" d="m387.47238,231.32905c-0.28724,12.25518 -5.32389,26.05787 -18.80509,35.55771c-8.38225,5.9071 -17.97822,7.94828 -27.72612,2.90856c-8.21125,-4.24529 -11.66394,-13.86753 -9.95046,-25.14915c1.1581,-7.62159 3.19699,-15.03485 5.08314,-22.48945c1.32412,-5.23509 0.66414,-6.16489 -4.73366,-6.68288c-6.28357,-0.6015 -9.70887,-7.93611 -6.22215,-13.10554c1.44783,-2.14818 1.11077,-4.13586 -1.53251,-5.27399c-6.66463,-2.86883 -8.24196,-4.96272 -7.792,-10.4499c0.45742,-5.58852 3.9043,-9.6952 9.77612,-11.14704c3.05836,-0.75631 6.23543,-1.12274 9.38261,-1.44536c2.26388,-0.23265 4.21063,-0.60797 4.24384,-3.33171c0.02989,-2.45297 -1.74419,-2.69212 -3.76899,-3.33252c-12.53727,-3.96482 -21.78291,-11.96578 -27.95358,-23.2093c-2.17422,-3.96157 0.54459,-7.8283 5.21099,-8.32036c4.45637,-0.47016 8.48934,1.0214 12.33554,2.87775c23.01739,11.10976 39.61171,28.50517 51.42922,50.4969c6.49112,12.07928 10.99066,24.72275 11.02304,42.09628" fill="#D5B58F" id="svg_6"/>
   <path stroke="null" d="m318.58296,52.62857c7.60688,14.1399 0.20672,28.82942 -15.56657,31.64557c-2.40252,0.42883 -4.48127,1.07896 -4.10023,3.95184c0.31879,2.40029 2.45151,3.34224 4.3252,2.53972c7.29806,-3.125 11.31858,1.72746 15.51594,5.83739c7.47903,7.32328 13.28193,15.81631 17.70178,25.23101c0.98044,2.08739 1.08504,3.32036 -1.48186,4.21854c-3.49836,1.22487 -7.17519,4.31987 -10.22109,3.75648c-2.9936,-0.55367 -2.94961,-5.73848 -4.419,-8.8108c-8.58232,-17.94178 -23.46235,-26.72745 -41.59997,-23.8959c-9.9712,1.55642 -18.95119,5.70606 -26.94824,11.77204c-13.59574,10.31452 -16.28633,10.3356 -29.93439,0.19861c-9.42993,-7.0047 -19.86769,-11.76474 -31.81057,-12.44164c-17.52744,-0.99383 -32.50044,9.52253 -39.51458,27.12548c-0.96217,2.4165 -0.60519,6.24757 -3.1505,6.90985c-1.99491,0.51881 -4.74111,-1.67639 -7.14115,-2.69294c-5.59039,-2.36786 -5.55718,-2.36057 -2.95873,-7.74319c5.38451,-11.15516 12.86851,-20.71173 22.52094,-28.68271c1.84714,-1.5248 3.52326,-2.43352 5.94488,-1.35051c0.96798,0.43288 2.15597,0.41261 3.25013,0.55609c2.15098,0.2821 4.36339,0.41423 4.91379,-2.30383c0.5753,-2.84776 -1.29341,-3.86106 -3.80053,-4.13018c-5.48081,-0.58852 -9.938,-3.02042 -13.59409,-7.00308c-6.08517,-6.62856 -7.01995,-16.63585 -2.07378,-24.62548c6.8124,11.0214 16.15267,19.55496 26.50411,27.12304c4.56844,3.33982 6.11506,2.79264 6.96184,-2.66051c0.24491,-1.57345 1.38805,-1.61722 2.2564,-1.87987c3.95411,-1.19569 7.96385,-2.21223 11.95532,-3.28874c1.84547,-0.49692 3.38877,0.08026 5.09394,0.89252c19.26831,9.17396 38.53829,9.13748 57.65552,-0.42396c1.61801,-0.80982 2.95459,-1.10084 4.65063,-0.65095c3.46017,0.91764 6.99338,1.59128 10.41867,2.61268c2.45981,0.73363 5.64849,0.59905 5.05991,4.98297c-0.32792,2.44812 3.01768,3.21741 5.74813,1.26702c10.21195,-7.29653 19.52484,-15.48638 26.41444,-26.01085c0.36195,-0.55285 0.75961,-1.08301 1.42375,-2.02578" fill="#F2ECD9" id="svg_7"/>
   <path stroke="null" d="m170.42613,257.0424c0.00082,-7.5543 0.0249,-15.10943 -0.01578,-22.66373c-0.00997,-1.8977 0.12701,-3.21984 2.63081,-3.68597c25.99853,-4.84193 51.98046,-9.76815 77.93581,-14.82328c2.72297,-0.53016 2.79022,0.46126 2.48636,2.38409c-3.26092,20.62257 -6.58908,41.23539 -9.69393,61.87983c-0.39849,2.64834 -1.98163,2.88423 -3.8711,3.20038c-19.29406,3.23201 -38.59391,6.42429 -57.88299,9.68385c-2.62832,0.44423 -4.53025,0.42153 -4.91214,-2.90531c-0.24656,-2.14575 -1.27847,-4.40418 -3.24515,-5.44991c-3.60462,-1.91715 -3.52824,-4.90434 -3.46763,-8.1939c0.12037,-6.47374 0.0357,-12.95071 0.0357,-19.42607" fill="#B09EB9" id="svg_8"/>
   <path stroke="null" d="m163.77479,278.80391c-15.89367,-10.62094 -19.88098,-10.65175 -26.03423,-0.35505c-1.78487,-0.68661 -2.4457,-2.43434 -3.54567,-3.71514c-3.82627,-4.45606 -8.53002,-7.14332 -14.52388,-5.74659c-5.68503,1.32376 -7.78868,5.99545 -8.98911,11.07733c-0.27811,1.17704 -0.59606,2.38569 -0.59025,3.57814c0.00997,1.85312 -0.6932,2.28923 -2.52041,1.94796c-4.60414,-0.86009 -9.22572,-1.66099 -13.87136,-2.26086c-2.42494,-0.3129 -3.19699,-1.67234 -3.51164,-3.72325c-2.2647,-14.78436 -4.55101,-29.56548 -6.83399,-44.34661c-1.00118,-6.47941 -2.00985,-12.95719 -3.08658,-19.89136c11.76771,2.21952 23.09873,4.33447 34.4198,6.49644c15.29427,2.91991 30.57943,5.89089 45.87702,8.79458c1.69937,0.32263 3.24515,0.40288 3.23684,2.744c-0.05312,15.0535 -0.02657,30.1078 -0.02657,45.40044" fill="#B09EB9" id="svg_9"/>
   <path stroke="null" d="m179.80708,172.33103c7.1395,2.5762 14.39852,3.63489 21.91575,1.73719c9.54781,-2.41002 16.29879,-8.08527 21.72149,-18.60083c1.60306,6.76474 5.25499,11.99903 9.63416,16.79879c2.91142,3.18985 3.97569,3.18743 6.86802,-0.10619c4.14256,-4.71708 7.84846,-9.7033 9.42828,-16.72421c6.25535,12.23655 15.43458,19.23961 29.04443,19.49415c13.46457,0.25292 23.22244,-5.72471 29.61477,-17.51134c3.24846,2.78047 6.68704,5.28534 9.54616,8.31144c2.25807,2.39056 0.1378,5.03972 -1.41877,6.73556c-2.33278,2.53972 -4.32188,5.12646 -5.89839,8.18903c-1.34987,2.62241 -4.36172,3.59031 -6.98923,4.74222c-9.87159,4.32392 -20.46376,5.54232 -31.05677,6.32295c-25.94042,1.91148 -51.89495,2.04118 -77.79385,-0.72308c-5.33635,-0.56907 -10.69512,-1.41294 -15.88868,-2.71724c-16.18173,-4.06533 -23.32869,-12.23735 -25.33688,-28.56355c-0.75879,-6.16489 -1.17802,-12.35326 0.17599,-18.97616c2.38841,1.01896 4.69794,2.07522 7.06644,2.98394c1.22368,0.47016 1.65537,1.20297 1.67113,2.43839c0.07222,5.71173 2.41165,10.71741 5.20934,15.56906c2.2066,5.73038 6.70365,8.88781 12.48662,10.59987" fill="#FEFEFE" id="svg_10"/>
   <path stroke="null" d="m315.97621,127.92361c-0.12037,0.44666 -0.15358,1.09841 -0.32625,1.13489c-2.41247,0.51881 -4.91545,0.11998 -7.35699,0.94195c-1.19629,0.40288 -1.46359,-1.34403 -2.0331,-2.17899c-7.64839,-11.21432 -18.42818,-16.13246 -31.98491,-14.29231c-13.24541,1.79799 -23.03315,11.08949 -26.01181,23.97048c-0.56784,2.45704 -1.28179,3.53518 -4.15086,3.3617c-5.09892,-0.30723 -10.24433,-0.29993 -15.34492,-0.00325c-2.91142,0.16861 -3.61706,-0.99303 -4.18989,-3.4525c-2.74622,-11.79879 -10.22524,-19.66925 -22.02864,-23.00178c-11.62408,-3.28226 -22.17225,-0.62257 -31.06342,7.52027c-3.89767,3.57004 -6.64138,7.97259 -8.07924,12.97746c-0.62097,2.15872 -1.25023,2.44569 -3.28416,1.63263c-6.14744,-2.45704 -6.17897,-2.38164 -3.91676,-8.63246c6.42969,-17.76264 20.57501,-27.07603 37.49062,-24.33689c8.42376,1.36349 16.0406,4.86219 22.90863,9.84436c2.21822,1.60911 4.35426,3.33171 6.62063,4.87191c9.62171,6.53859 18.10525,6.52724 27.46212,-0.3429c6.0835,-4.46578 12.12717,-8.86835 19.28658,-11.66018c19.35964,-7.55025 35.68914,-1.11381 44.23495,17.58592c0.61598,1.34808 1.18465,2.71724 1.76745,4.05967" fill="#FEFEFE" id="svg_11"/>
   <path stroke="null" d="m283.76301,44.12014c-7.51224,2.55593 -14.23331,4.85166 -20.96103,7.12954c-8.07425,2.73347 -16.15932,5.43693 -24.22861,8.1858c-1.72427,0.5869 -3.33895,0.84954 -5.18028,0.22374c-14.58117,-4.95379 -29.19138,-9.82408 -43.78581,-14.73735c-0.36112,-0.12159 -0.65085,-0.44666 -1.40466,-0.98411c6.72606,-2.30788 13.10843,-4.52011 19.50741,-6.68774c7.4234,-2.5154 14.94643,-4.77788 22.25693,-7.57133c4.00642,-1.53129 7.51555,-1.38213 11.49872,0.02756c13.72442,4.85976 27.56092,9.4204 42.29732,14.4139" fill="#B09EB9" id="svg_12"/>
   <path stroke="null" d="m170.52824,152.12999c-5.15289,-12.34111 2.02146,-26.71853 15.49934,-31.06192c13.51771,-4.35555 28.37117,3.59193 31.76326,16.99658c3.9898,15.76443 -8.48354,30.93384 -24.7649,30.11997c0.03238,-2.60051 2.28131,-4.26474 2.92054,-6.60992c0.96631,-1.2119 2.53618,-1.5775 3.70174,-2.52108c3.34062,-2.70347 4.08445,-7.19277 1.70102,-10.46854c-2.35354,-3.23363 -5.76969,-3.79378 -9.83754,-1.6002c-0.95885,0.51719 -1.80729,1.2427 -2.92553,1.46157c-5.83196,-1.60668 -11.26545,-1.37726 -15.83554,3.15013c-0.5504,0.54637 -1.33741,0.93385 -2.22237,0.53339" fill="#FEFEFE" id="svg_13"/>
   <path stroke="null" d="m281.70418,168.15462c-12.88262,0.87792 -23.67238,-6.52317 -26.59709,-18.24335c-2.87986,-11.53615 2.94629,-23.10472 14.08638,-27.96935c10.96244,-4.7868 23.95797,-1.09354 30.67323,8.67461c1.52171,2.21385 2.34442,4.20071 0.88829,6.9893c-1.81725,3.48005 -0.58029,7.07361 0.9605,10.47421c0.57283,1.2646 2.05135,2.40272 0.72142,4.00454c-0.39184,0.15646 -0.88746,0.26427 -1.17054,0.01053c-4.84239,-4.33365 -10.27422,-4.17639 -15.97668,-2.05009c-0.98707,-0.22049 -1.65121,-0.92332 -2.39754,-1.5167c-4.16332,-3.31388 -7.72642,-3.19066 -10.7964,0.35588c-3.07081,3.54978 -2.58018,7.78292 1.26768,10.98248c0.63508,0.52854 1.34737,0.93305 2.0937,1.28973c3.68846,0.96708 6.01792,3.09177 6.24705,6.99821" fill="#FEFEFE" id="svg_14"/>
   <path stroke="null" d="m146.37104,310.87587c-14.89745,-0.01297 -28.29063,-11.89445 -29.63219,-25.17508c-0.05397,-0.53421 -0.11871,-1.09761 -0.0083,-1.61235c0.72307,-3.37224 0.66414,-7.50405 4.81916,-8.66164c3.95744,-1.10327 6.2786,2.08252 8.44036,4.69277c2.53618,3.06339 4.3086,6.58155 5.39778,10.37695c0.53711,1.87175 1.41959,3.3998 3.56476,3.22308c2.27467,-0.18644 3.06001,-1.86932 3.38047,-3.95266c0.4292,-2.78697 0.9107,-5.59419 1.73008,-8.28794c1.23779,-4.06777 3.75736,-5.16213 7.5745,-3.02529c4.51614,2.52755 9.19832,5.14348 8.40135,11.56372c-0.16769,1.34323 0.87002,2.54783 2.38343,2.95558c1.73672,0.46854 2.90561,-0.37046 3.81797,-1.71531c0.64255,-0.94682 0.88746,-2.60943 2.52372,-2.10441c1.4611,0.44991 1.80729,1.95201 1.95256,3.31064c0.57779,5.39963 -2.0414,9.36607 -6.21218,12.46837c-5.70744,4.24529 -12.38038,5.67688 -18.13347,5.94357" fill="#D5B58E" id="svg_15"/>
   <path stroke="null" d="m206.61919,57.53453c8.39636,2.8348 16.76119,5.56096 25.04217,8.50843c2.77277,0.98655 5.27409,0.9679 8.01116,-0.00405c7.00334,-2.4854 14.05234,-4.85084 21.12126,-7.15467c1.37477,-0.44828 3.5,-2.14332 4.204,-0.33803c0.73471,1.88473 1.1747,4.64494 -0.98044,6.40483c-1.4694,1.19892 -3.10817,2.31111 -4.85154,3.06257c-15.92355,6.8596 -31.82303,6.77449 -47.69759,-0.274c-4.35758,-1.93418 -6.54259,-4.79491 -4.84905,-10.20509" fill="#B09EB9" id="svg_16"/>
   <path stroke="null" d="m196.27523,161.76764c0.20837,2.76265 -1.79567,4.45688 -3.24931,6.41618c-10.04344,0.14186 -19.61699,-6.69018 -22.49768,-16.05383c2.75784,-2.18547 5.167,-4.9392 8.96254,-5.47666c3.1862,-0.45071 6.33671,-0.51475 9.16512,1.37646c0.07887,0.11025 0.24905,0.24724 0.22415,0.3275c-2.11279,6.88148 1.00203,11.0068 7.39518,13.41034" fill="#FFE0C5" id="svg_17"/>
   <path stroke="null" d="m285.11951,149.67538c6.46123,-3.91781 12.17532,-2.71644 17.31742,2.40921c-3.44771,9.61657 -10.53406,14.75762 -20.73274,16.07003c-1.8106,-2.43434 -2.81345,-5.6858 -6.54591,-6.18029c0.39268,-0.6242 1.03025,-0.83414 1.71099,-1.00356c6.19059,-1.54102 7.71148,-3.40467 7.68823,-9.43418c-0.00249,-0.68823 0.0249,-1.34078 0.56203,-1.86122" fill="#FFE0C5" id="svg_18"/>
   <path stroke="null" d="m201.24382,340.98287c-2.72379,-0.0681 -4.28287,1.13975 -5.05243,3.7735c-0.83515,2.86155 -2.11444,5.57797 -5.12714,7.00794c-1.15145,0.54637 -2.37595,1.05545 -3.47012,0.14754c-0.93809,-0.77821 -0.72307,-1.98363 -0.4898,-3.0415c0.17267,-0.78146 0.57946,-1.51345 0.76293,-2.2941c0.396,-1.69098 0.26897,-3.19715 -1.60057,-4.10425c-1.85295,-0.899 -3.17542,-0.22454 -4.25712,1.23135c-1.38721,1.86527 -2.82674,3.67379 -5.07733,4.61089c-0.98458,0.41018 -2.01732,1.11949 -3.0982,0.31777c-1.01365,-0.75146 -1.10994,-1.94633 -0.7729,-2.95801c1.49098,-4.4739 4.20233,-8.12419 8.17139,-10.83494c0.70233,-0.47989 1.54412,-0.64932 2.36683,-0.34615c5.87347,2.16764 11.73698,4.35879 17.60381,6.54182l0.04068,-0.05188" fill="#FF8F75" id="svg_19"/>
   <path stroke="null" d="m271.52212,340.59051c6.11423,-1.60748 11.30696,-3.38359 16.36106,-5.53016c1.04602,-0.44423 1.98494,-0.82522 3.14137,-0.37695c2.80349,1.08544 8.38308,8.72972 8.36234,11.5937c-0.01743,2.31841 -0.95968,3.17931 -3.39957,2.23168c-2.30788,-0.89737 -3.89019,-2.46272 -5.22428,-4.39608c-1.1996,-1.73801 -2.69308,-2.76102 -4.85403,-1.52642c-1.94344,1.11057 -1.86208,2.69861 -1.14895,4.54766c0.65003,1.68531 2.0057,3.84484 -0.37855,4.97812c-2.10948,1.00195 -3.91095,-0.61285 -5.38948,-2.08089c-1.28511,-1.27675 -2.0497,-2.89721 -2.4955,-4.59144c-0.61267,-2.33058 -1.70767,-4.16423 -4.9744,-4.84921" fill="#FF8F75" id="svg_20"/>
   <path stroke="null" d="m180.17152,222.73957c14.94394,-9.41958 30.8318,-13.97129 48.52694,-9.27124c-16.17592,3.09095 -32.35102,6.18109 -48.52694,9.27124" fill="#FDFDFC" id="svg_21"/>
   <path stroke="null" d="m151.65425,222.31884c-15.70023,-3.00179 -31.14062,-5.95412 -46.60093,-8.91051c8.02861,-5.46531 38.20207,0.19454 46.60093,8.91051" fill="#FDFDFC" id="svg_22"/>
   <path stroke="null" d="m236.42572,152.28238c1.63544,0.28615 3.14304,0.46206 4.60165,0.82442c2.28629,0.56825 3.20032,1.93743 2.23648,4.20558c-0.26316,0.62013 -0.45909,1.28 -0.80693,1.8523c-1.77241,2.91666 -3.61125,8.41359 -6.06358,7.60295c-3.78475,-1.2508 -5.7174,-6.14704 -6.93776,-10.37127c-0.53711,-1.8596 0.62179,-2.78697 2.23898,-3.20283c1.5873,-0.40693 3.22523,-0.62825 4.73116,-0.91115" fill="#FF8F75" id="svg_23"/>
   <path stroke="null" d="m201.20314,341.03475c1.83551,-0.37533 3.56891,0.16699 5.25001,0.71011c1.51424,0.48962 4.53192,-0.59339 3.88521,2.51215c-0.63508,3.05285 -2.70056,5.45639 -6.05112,5.84954c-2.03973,0.23914 -1.74669,-1.56128 -1.48353,-2.92478c0.44331,-2.29816 0.71561,-4.55414 -1.55906,-6.19974c-0.00082,0.0008 -0.04151,0.05268 -0.04151,0.05268" fill="#FD8E73" id="svg_24"/>
   <path stroke="null" d="m269.32133,344.53832c-1.54081,1.42834 3.39209,4.74951 -1.48268,5.42153c-2.20495,0.304 -6.31929,-3.88943 -5.83445,-6.01491c0.73304,-3.21173 4.06785,-2.07604 6.17648,-2.46514c2.54282,-0.46854 0.81191,1.78339 1.14065,3.05852" fill="#FC8E73" id="svg_25"/>
   <path stroke="null" d="m331.98279,134.5992c10.04177,-4.64575 7.45246,-4.84031 10.35558,4.10505c0.19259,0.59339 0.17267,1.25325 0.31546,2.38894c-3.75155,-2.28275 -7.07307,-4.30447 -10.67104,-6.49399" fill="#EFE8D4" id="svg_26"/>
   <path stroke="null" d="m179.80708,172.33103c-6.97511,-0.27805 -10.8379,-3.55788 -12.48662,-10.59987c3.36385,4.43013 7.74386,7.71887 12.48662,10.59987" fill="#FBDEC5" id="svg_27"/>
   <path stroke="null" d="m230.26998,147.45262c-1.46526,1.53129 -3.70672,1.70476 -5.09727,3.66244c0.15856,-3.7962 0.15856,-3.7962 5.09727,-3.66244" fill="#F8F6F4" id="svg_28"/>
   <path stroke="null" d="m244.48918,148.71478c-0.68987,-0.27237 -1.38058,-0.54394 -2.07045,-0.81631c1.81476,-0.42558 3.61706,-1.46239 5.2168,0.20266c-0.87667,1.04491 -2.0937,0.42883 -3.14636,0.61365" fill="#D7CDC0" id="svg_29"/>
   <path stroke="null" d="m244.48918,148.71478c0.87086,-1.07571 2.05384,-0.62338 3.14636,-0.61365c0.17434,0.74741 0.36777,2.15547 -0.05065,2.0963c-1.08255,-0.15484 -2.07045,-0.946 -3.09571,-1.48265" fill="#F5F2F0" id="svg_30"/>
   <path stroke="null" d="m279.51751,242.09753c-2.93881,0.04863 -5.78215,-0.43531 -8.39636,-1.75909c-2.76365,-1.39996 -4.52278,-3.58381 -4.37999,-6.75259c0.14528,-3.2393 2.23815,-5.40856 5.20269,-6.05868c4.73946,-1.04004 9.03228,-2.7894 13.30933,-5.03567c4.27457,-2.24465 8.44452,0.66958 8.56407,5.36803c0.19012,7.47162 -6.63474,14.26474 -14.29974,14.23801" fill="#6E4100" id="svg_31"/>
   <path stroke="null" d="m196.27523,161.76764c-8.51674,-1.48995 -11.03465,-6.02951 -7.61933,-13.73784c4.2372,-3.74352 7.67329,-4.56144 11.08697,-2.47c3.59216,2.20088 4.6498,5.57312 3.95993,9.45768c-0.7098,3.99644 -4.03879,5.45314 -7.42756,6.75016" fill="#6E4100" id="svg_32"/>
   <path stroke="null" d="m285.11951,149.67538c2.38425,6.86852 -1.7168,13.04149 -9.96125,12.29896c-4.72867,-2.23248 -6.49942,-4.79491 -6.08101,-8.93076c0.3935,-3.88781 2.60093,-6.41051 6.35498,-7.59646c4.48459,-1.41619 7.2856,1.00843 9.6873,4.22827" fill="#6E4300" id="svg_33"/>
   <path stroke="null" d="m273.4091,234.02765c4.79924,-1.78907 9.59846,-1.28891 12.85522,-5.24157c-0.72723,6.47941 -5.21182,8.36899 -12.85522,5.24157" fill="#FAF8F7" id="svg_34"/>
  </g>
  <text transform="matrix(1.94361 0 0 2.38225 -217.058 -290.211)" stroke="#00d18c" fill="#ffffff" stroke-width="0" x="172.93782" y="294.2913" id="svg_35" font-size="24" font-family="'Urbanist'" text-anchor="start" xml:space="preserve" font-weight="normal" font-style="normal">Bibliomatic</text>
 </g>
</svg>