<?xml version="1.0" standalone="no" ?>
<!DOCTYPE svg PUBLIC "-//W3C//DTD SVG 1.0//EN" "http://www.w3.org/TR/2001/REC-SVG-20010904/DTD/svg10.dtd">
<svg style="vertical-align: 0" xmlns="http://www.w3.org/2000/svg" width="1.633ex" height="1.57ex" role="img" focusable="false" viewBox="0 -694 722 694">
<style>
  * {
    fill: black;
    background-color: transparent;
  }
</style><g stroke="currentColor" fill="currentColor" stroke-width="0" transform="scale(1,-1)"><g data-mml-node="math"><g data-mml-node="mi"><path data-c="2220" d="M71 0L68 2Q65 3 63 5T58 11T55 20Q55 22 57 28Q67 43 346 361Q397 420 474 508Q595 648 616 671T647 694T661 688T666 674Q666 668 663 663Q662 662 627 622T524 503T390 350L120 41L386 40H653Q666 30 666 20Q666 8 651 0H71Z"></path></g></g></g></svg>