<?xml version="1.0" standalone="no" ?>
<!DOCTYPE svg PUBLIC "-//W3C//DTD SVG 1.0//EN" "http://www.w3.org/TR/2001/REC-SVG-20010904/DTD/svg10.dtd">
<svg style="vertical-align: -0.57ex" xmlns="http://www.w3.org/2000/svg" width="0.672ex" height="2.267ex" role="img" focusable="false" viewBox="0 -750 297 1002">
<style>
  * {
    fill: black;
    background-color: transparent;
  }
</style><g stroke="currentColor" fill="currentColor" stroke-width="0" transform="scale(1,-1)"><g data-mml-node="math"><g data-mml-node="mo"><path data-c="2224" d="M118 737Q131 750 138 750L151 746L158 739V579L160 421L213 470Q269 519 276 519Q284 519 290 513T296 499V498Q296 493 291 488T244 445Q225 428 213 417L158 368V-239Q143 -252 136 -252L124 -248L120 -241L118 44V328L62 279Q4 231 0 230Q-8 230 -14 236T-20 250Q-20 257 -11 265T62 332L118 384V737Z"></path></g></g></g></svg>