<?xml version="1.0" standalone="no" ?>
<!DOCTYPE svg PUBLIC "-//W3C//DTD SVG 1.0//EN" "http://www.w3.org/TR/2001/REC-SVG-20010904/DTD/svg10.dtd">
<svg style="vertical-align: -4.604ex" xmlns="http://www.w3.org/2000/svg" width="12.706ex" height="10.339ex" role="img" focusable="false" viewBox="0 -2535 5616 4570">
<style>
  * {
    fill: black;
    background-color: transparent;
  }
</style><g stroke="currentColor" fill="currentColor" stroke-width="0" transform="scale(1,-1)"><g data-mml-node="math"><g data-mml-node="mrow"><g data-mml-node="mo"><path data-c="23A1" d="M319 -645V1154H666V1070H403V-645H319Z" transform="translate(0,1381)"></path><path data-c="23A3" d="M319 -644V1155H403V-560H666V-644H319Z" transform="translate(0,-1391)"></path><svg width="667" height="1172" y="-336" x="0" viewBox="0 293 667 1172"><path data-c="23A2" d="M319 0V602H403V0H319Z" transform="scale(1,2.92)"></path></svg></g><g data-mml-node="mtable" transform="translate(667,0)"><g data-mml-node="mtr" transform="translate(0,1785)"><g data-mml-node="mtd"><g data-mml-node="mn"><path data-c="30" d="M96 585Q152 666 249 666Q297 666 345 640T423 548Q460 465 460 320Q460 165 417 83Q397 41 362 16T301 -15T250 -22Q224 -22 198 -16T137 16T82 83Q39 165 39 320Q39 494 96 585ZM321 597Q291 629 250 629Q208 629 178 597Q153 571 145 525T137 333Q137 175 145 125T181 46Q209 16 250 16Q290 16 318 46Q347 76 354 130T362 333Q362 478 354 524T321 597Z"></path></g></g><g data-mml-node="mtd" transform="translate(1555,0)"><g data-mml-node="mo"><path data-c="22EF" d="M78 250Q78 274 95 292T138 310Q162 310 180 294T199 251Q199 226 182 208T139 190T96 207T78 250ZM525 250Q525 274 542 292T585 310Q609 310 627 294T646 251Q646 226 629 208T586 190T543 207T525 250ZM972 250Q972 274 989 292T1032 310Q1056 310 1074 294T1093 251Q1093 226 1076 208T1033 190T990 207T972 250Z"></path></g></g><g data-mml-node="mtd" transform="translate(3782,0)"><g data-mml-node="mn"><path data-c="30" d="M96 585Q152 666 249 666Q297 666 345 640T423 548Q460 465 460 320Q460 165 417 83Q397 41 362 16T301 -15T250 -22Q224 -22 198 -16T137 16T82 83Q39 165 39 320Q39 494 96 585ZM321 597Q291 629 250 629Q208 629 178 597Q153 571 145 525T137 333Q137 175 145 125T181 46Q209 16 250 16Q290 16 318 46Q347 76 354 130T362 333Q362 478 354 524T321 597Z"></path></g></g></g><g data-mml-node="mtr" transform="translate(0,-385)"><g data-mml-node="mtd" transform="translate(111,0)"><g data-mml-node="TeXAtom" data-mjx-texclass="ORD"><g data-mml-node="mo"><path data-c="22EE" d="M78 30Q78 54 95 72T138 90Q162 90 180 74T199 31Q199 6 182 -12T139 -30T96 -13T78 30ZM78 440Q78 464 95 482T138 500Q162 500 180 484T199 441Q199 416 182 398T139 380T96 397T78 440ZM78 840Q78 864 95 882T138 900Q162 900 180 884T199 841Q199 816 182 798T139 780T96 797T78 840Z"></path></g></g></g><g data-mml-node="mtd" transform="translate(1500,0)"><g data-mml-node="mo"><path data-c="22F1" d="M133 760Q133 784 150 802T193 820Q217 820 235 804T254 761Q254 736 237 718T194 700T151 717T133 760ZM580 460Q580 484 597 502T640 520Q664 520 682 504T701 461Q701 436 684 418T641 400T598 417T580 460ZM1027 160Q1027 184 1044 202T1087 220Q1111 220 1129 204T1148 161Q1148 136 1131 118T1088 100T1045 117T1027 160Z"></path></g></g><g data-mml-node="mtd" transform="translate(3893,0)"><g data-mml-node="TeXAtom" data-mjx-texclass="ORD"><g data-mml-node="mo"><path data-c="22EE" d="M78 30Q78 54 95 72T138 90Q162 90 180 74T199 31Q199 6 182 -12T139 -30T96 -13T78 30ZM78 440Q78 464 95 482T138 500Q162 500 180 484T199 441Q199 416 182 398T139 380T96 397T78 440ZM78 840Q78 864 95 882T138 900Q162 900 180 884T199 841Q199 816 182 798T139 780T96 797T78 840Z"></path></g></g></g></g><g data-mml-node="mtr" transform="translate(0,-1785)"><g data-mml-node="mtd"><g data-mml-node="mn"><path data-c="30" d="M96 585Q152 666 249 666Q297 666 345 640T423 548Q460 465 460 320Q460 165 417 83Q397 41 362 16T301 -15T250 -22Q224 -22 198 -16T137 16T82 83Q39 165 39 320Q39 494 96 585ZM321 597Q291 629 250 629Q208 629 178 597Q153 571 145 525T137 333Q137 175 145 125T181 46Q209 16 250 16Q290 16 318 46Q347 76 354 130T362 333Q362 478 354 524T321 597Z"></path></g></g><g data-mml-node="mtd" transform="translate(1555,0)"><g data-mml-node="mo"><path data-c="22EF" d="M78 250Q78 274 95 292T138 310Q162 310 180 294T199 251Q199 226 182 208T139 190T96 207T78 250ZM525 250Q525 274 542 292T585 310Q609 310 627 294T646 251Q646 226 629 208T586 190T543 207T525 250ZM972 250Q972 274 989 292T1032 310Q1056 310 1074 294T1093 251Q1093 226 1076 208T1033 190T990 207T972 250Z"></path></g></g><g data-mml-node="mtd" transform="translate(3782,0)"><g data-mml-node="mn"><path data-c="30" d="M96 585Q152 666 249 666Q297 666 345 640T423 548Q460 465 460 320Q460 165 417 83Q397 41 362 16T301 -15T250 -22Q224 -22 198 -16T137 16T82 83Q39 165 39 320Q39 494 96 585ZM321 597Q291 629 250 629Q208 629 178 597Q153 571 145 525T137 333Q137 175 145 125T181 46Q209 16 250 16Q290 16 318 46Q347 76 354 130T362 333Q362 478 354 524T321 597Z"></path></g></g></g></g><g data-mml-node="mo" transform="translate(4949,0)"><path data-c="23A4" d="M0 1070V1154H347V-645H263V1070H0Z" transform="translate(0,1381)"></path><path data-c="23A6" d="M263 -560V1155H347V-644H0V-560H263Z" transform="translate(0,-1391)"></path><svg width="667" height="1172" y="-336" x="0" viewBox="0 293 667 1172"><path data-c="23A5" d="M263 0V602H347V0H263Z" transform="scale(1,2.92)"></path></svg></g></g></g></g></svg>