<svg width="507.2" height="507.2" xmlns="http://www.w3.org/2000/svg" xml:space="preserve" version="1.1">

 <g>
  <title>Layer 1</title>
  <circle id="svg_1" fill="#512bd4" r="253.60001" cy="252.6" cx="253.6"/>
  <path id="svg_2" fill="#5434e2" d="m188.8,368l130.4,130.4c108,-28.8 188,-127.2 188,-244.8c0,-2.4 0,-4.8 0,-7.2l-102.4,-94.4l-216,216z"/>
  <g id="svg_3">
   <path id="svg_4" fill="#FFFFFF" d="m260,310.4c11.2,11.2 11.2,30.4 0,41.6l-23.2,23.2c-11.2,11.2 -30.4,11.2 -41.6,0l-101.6,-102.4c-11.2,-11.2 -11.2,-30.4 0,-41.6l23.2,-23.2c11.2,-11.2 30.4,-11.2 41.6,0l101.6,102.4z"/>
   <path id="svg_5" fill="#FFFFFF" d="m348.8,133.6c11.2,-11.2 30.4,-11.2 41.6,0l23.2,23.2c11.2,11.2 11.2,30.4 0,41.6l-176,175.2c-11.2,11.2 -30.4,11.2 -41.6,0l-23.2,-23.2c-11.2,-11.2 -11.2,-30.4 0,-41.6l176,-175.2z"/>
  </g>
 </g>
</svg>