<svg width="24" height="24" xmlns="http://www.w3.org/2000/svg" fill="none">

 <g>
  <title>Layer 1</title>
  <path id="svg_1" stroke-linejoin="round" stroke-linecap="round" stroke-width="2" stroke="#ffffff" d="m18,6l-0.8009,12.0129c-0.0701,1.0521 -0.1052,1.5782 -0.3324,1.9771c-0.2001,0.3512 -0.5019,0.6335 -0.8656,0.8098c-0.4131,0.2002 -0.9404,0.2002 -1.9949,0.2002l-4.01243,0c-1.0545,0 -1.58175,0 -1.99488,-0.2002c-0.36372,-0.1763 -0.6655,-0.4586 -0.86557,-0.8098c-0.22725,-0.3989 -0.26232,-0.925 -0.33246,-1.9771l-0.80086,-12.0129m-2,0l16,0m-4,0l-0.2706,-0.81193c-0.2623,-0.78682 -0.3935,-1.18023 -0.6367,-1.47109c-0.2148,-0.25685 -0.4906,-0.45566 -0.8022,-0.5782c-0.3529,-0.13878 -0.7675,-0.13878 -1.5969,-0.13878l-1.3872,0c-0.8294,0 -1.244,0 -1.59689,0.13878c-0.31159,0.12254 -0.58743,0.32135 -0.80222,0.5782c-0.24324,0.29086 -0.37437,0.68427 -0.63665,1.47109l-0.27064,0.81193m6,4l0,7m-4,-7l0,7"/>
 </g>
</svg>