<svg width="24" height="24" xmlns="http://www.w3.org/2000/svg" fill="none">

 <g>
  <title>Layer 1</title>
  <path id="svg_1" stroke-width="1.4" stroke-linejoin="round" stroke-linecap="round" stroke="#ffffff" d="m4,21l0,-1.5c0,-3.0376 2.46243,-5.5 5.5,-5.5l3,0c3.0376,0 5.5,2.4624 5.5,5.5l0,1.5m-11,0l0,-3m8,3l0,-3m1.5,-12l0.3367,-0.50507c0.3602,-0.54032 1.1004,-0.66711 1.6199,-0.27748c0.5507,0.41302 0.6079,1.21804 0.1212,1.70479l-0.7242,0.72421c-0.2264,0.22637 -0.3536,0.53341 -0.3536,0.85355m0,1.5l0,0.2m-3.6719,-5.30199c0.8154,-1.14856 2.1561,-1.89801 3.6719,-1.89801c2.4853,0 4.5,2.01472 4.5,4.5c0,2.48528 -2.0147,4.5 -4.5,4.5c-1.2451,0 -2.3721,-0.5057 -3.1869,-1.3229m0.6869,-2.67709c0,-2.20915 -1.7909,-4.00001 -4,-4.00001c-2.20914,0 -4,1.79086 -4,4.00001c0,2.20919 1.79086,3.99999 4,3.99999c0.8312,0 1.6032,-0.2535 2.2429,-0.6875c1.0604,-0.7194 1.7571,-1.93456 1.7571,-3.31249z"/>
 </g>
</svg>