<?xml version="1.0" standalone="no" ?>
<!DOCTYPE svg PUBLIC "-//W3C//DTD SVG 1.0//EN" "http://www.w3.org/TR/2001/REC-SVG-20010904/DTD/svg10.dtd">
<svg style="vertical-align: -1.018ex" xmlns="http://www.w3.org/2000/svg" width="2.514ex" height="3.167ex" role="img" focusable="false" viewBox="0 -950 1111 1400">
<style>
  * {
    fill: black;
    background-color: transparent;
  }
</style><g stroke="currentColor" fill="currentColor" stroke-width="0" transform="scale(1,-1)"><g data-mml-node="math"><g data-mml-node="mo"><path data-c="22C1" d="M55 900Q55 919 69 934T103 950Q134 950 147 924Q152 913 353 333L555 -250L757 333Q958 913 963 924Q978 950 1007 950Q1028 950 1041 935T1055 901Q1055 894 1054 891Q1052 884 826 231T597 -426Q583 -450 556 -450Q527 -450 512 -424Q510 -421 285 229T56 890Q55 893 55 900Z"></path></g></g></g></svg>