<?xml version="1.0" standalone="no" ?>
<!DOCTYPE svg PUBLIC "-//W3C//DTD SVG 1.0//EN" "http://www.w3.org/TR/2001/REC-SVG-20010904/DTD/svg10.dtd">
<svg style="vertical-align: -0.498ex" xmlns="http://www.w3.org/2000/svg" width="2.262ex" height="2.07ex" role="img" focusable="false" viewBox="0 -695 1000 915">
<style>
  * {
    fill: black;
    background-color: transparent;
  }
</style><g stroke="currentColor" fill="currentColor" stroke-width="0" transform="scale(1,-1)"><g data-mml-node="math"><g data-mml-node="mo"><path data-c="2199" d="M126 -41Q126 -92 121 -97Q121 -98 139 -80T200 -20T281 61T394 173T517 296Q909 690 916 693Q922 695 924 695Q932 695 938 689T944 674Q944 670 943 668Q942 664 546 268Q292 13 222 -57T153 -128Q176 -123 212 -123Q310 -123 400 -179Q417 -190 417 -197Q417 -201 408 -210T394 -220Q392 -220 369 -206T302 -177T204 -162Q131 -162 67 -194Q63 -195 59 -192T55 -183Q55 -180 62 -163T78 -115T86 -45Q86 10 72 54T44 120T29 145Q29 149 38 158T52 168Q59 168 70 151Q126 62 126 -41Z"></path></g></g></g></svg>