<?xml version="1.0" standalone="no" ?>
<!DOCTYPE svg PUBLIC "-//W3C//DTD SVG 1.0//EN" "http://www.w3.org/TR/2001/REC-SVG-20010904/DTD/svg10.dtd">
<svg style="vertical-align: -1.018ex" xmlns="http://www.w3.org/2000/svg" width="2.514ex" height="3.167ex" role="img" focusable="false" viewBox="0 -950 1111 1400">
<style>
  * {
    fill: black;
    background-color: transparent;
  }
</style><g stroke="currentColor" fill="currentColor" stroke-width="0" transform="scale(1,-1)"><g data-mml-node="math"><g data-mml-node="mo"><path data-c="22C0" d="M1055 -401Q1055 -419 1042 -434T1007 -450Q977 -450 963 -423Q959 -417 757 167L555 750L353 167Q151 -417 147 -423Q134 -450 104 -450Q84 -450 70 -436T55 -401Q55 -394 56 -390Q59 -381 284 270T512 925Q525 950 555 950Q583 950 597 926Q599 923 825 270T1054 -391Q1055 -394 1055 -401Z"></path></g></g></g></svg>